<svg width="30" height="30" viewBox="0 0 30 30" fill="none" xmlns="http://www.w3.org/2000/svg">
<path fill-rule="evenodd" clip-rule="evenodd" d="M30 15C30 23.284 23.284 30 15 30C6.716 30 0 23.284 0 15C0 6.716 6.716 0 15 0C23.284 0 30 6.716 30 15ZM9.80003 8.00003H20.2C20.4368 7.9987 20.6714 8.04435 20.8904 8.13434C21.1094 8.22432 21.3084 8.35688 21.4758 8.52429C21.6432 8.6917 21.7757 8.89063 21.8657 9.10962C21.9557 9.3286 22.0014 9.56327 22 9.80002V20.2C22.0014 20.4368 21.9557 20.6714 21.8657 20.8904C21.7757 21.1094 21.6432 21.3084 21.4758 21.4758C21.3084 21.6432 21.1094 21.7757 20.8904 21.8657C20.6714 21.9557 20.4368 22.0014 20.2 22H9.80003C9.56328 22.0014 9.32862 21.9557 9.10963 21.8657C8.89065 21.7757 8.69169 21.6432 8.52428 21.4758C8.35687 21.3084 8.22433 21.1094 8.13434 20.8904C8.04435 20.6714 7.9987 20.4368 8.00003 20.2V9.80002C7.9987 9.56327 8.04435 9.3286 8.13434 9.10962C8.22433 8.89063 8.35687 8.6917 8.52428 8.52429C8.69169 8.35688 8.89065 8.22432 9.10963 8.13434C9.32862 8.04435 9.56328 7.9987 9.80003 8.00003ZM18.0291 10.0036C18.0055 10.0662 17.9956 10.1332 18 10.2V11.5C17.9956 11.5668 18.0055 11.6338 18.0291 11.6965C18.0526 11.7591 18.0893 11.8161 18.1367 11.8634C18.184 11.9107 18.2409 11.9474 18.3036 11.971C18.3662 11.9945 18.4332 12.0044 18.5 12H19.8C19.8668 12.0044 19.9338 11.9945 19.9965 11.971C20.0591 11.9474 20.1161 11.9107 20.1634 11.8634C20.2107 11.8161 20.2474 11.7591 20.271 11.6965C20.2945 11.6338 20.3045 11.5668 20.3 11.5V10.2C20.3045 10.1332 20.2945 10.0662 20.271 10.0036C20.2474 9.9409 20.2107 9.88401 20.1634 9.83667C20.1161 9.78933 20.0591 9.75263 19.9965 9.72906C19.9338 9.7055 19.8668 9.69562 19.8 9.70004H18.5C18.4332 9.69562 18.3662 9.7055 18.3036 9.72906C18.2409 9.75263 18.184 9.78933 18.1367 9.83667C18.0893 9.88401 18.0526 9.9409 18.0291 10.0036ZM17.1184 12.8816C16.5564 12.3196 15.7949 12.0027 15 12C14.2052 12.0027 13.4437 12.3196 12.8816 12.8816C12.3196 13.4437 12.0027 14.2052 12 15C12.0203 15.7893 12.3428 16.5406 12.9011 17.0989C13.4594 17.6572 14.2108 17.9798 15 18C15.7949 17.9974 16.5564 17.6805 17.1184 17.1184C17.6805 16.5564 17.9974 15.7949 18 15C17.9974 14.2052 17.6805 13.4437 17.1184 12.8816ZM20.1 20.7C20.5 20.7 20.7 20.4 20.7 20.1C20.7 20.1 20.7 14 20.6 14H19.1C19.1 14.15 19.125 14.325 19.15 14.5C19.175 14.675 19.2 14.85 19.2 15C19.2 17.4 17.3 19.3 14.9 19.3C12.5 19.3 10.6 17.4 10.6 15V15C10.6 14.7 10.6 14.3 10.7 14H9.30003V20.1C9.30003 20.5 9.60003 20.7 9.90003 20.7H20.1Z" fill="#BFBFBF"/>
</svg>
