<svg width="30" height="30" viewBox="0 0 30 30" fill="none" xmlns="http://www.w3.org/2000/svg">
<path fill-rule="evenodd" clip-rule="evenodd" d="M30 15C30 23.284 23.284 30 15 30C6.716 30 0 23.284 0 15C0 6.716 6.716 0 15 0C23.284 0 30 6.716 30 15ZM8 8.479C8 7.592 8.7 7 9.7 7C10.7 7 11.3 7.592 11.4 8.479C11.4 9.366 10.8 9.95801 9.7 9.95801C8.7 9.95801 8 9.366 8 8.479ZM11 20.803H8.3V11.239H11V20.803ZM15.6 12.324C16 11.732 17.1 10.944 18.7 10.944C20.6 10.944 22 12.127 22 15.085V21H19.3V15.479C19.3 14.197 18.6 13.408 17.5 13.408C16.7 13.408 16 14 15.8 14.493C15.7 14.592 15.7 14.887 15.7 15.183V15.183V20.901H13V11.338H15.4L15.6 12.324Z" fill="white"/>
</svg>
