<svg width="115" height="37" viewBox="0 0 115 37" fill="none" xmlns="http://www.w3.org/2000/svg">
<path d="M0 0.261841H5.4452C8.88694 0.261841 10.5776 2.2505 10.5776 5.9113V17.4754C10.5776 21.1345 8.88694 23.1282 5.4452 23.1282H0V0.261841ZM3.44174 3.52822V19.8618H5.3817C6.47708 19.8618 7.12797 19.2735 7.12797 17.6394V5.7489C7.12797 4.11488 6.47073 3.52822 5.3817 3.52822H3.44174Z" fill="white"/>
<path d="M14.1748 0.261841H17.6213V23.1315H14.1748V0.261841Z" fill="white"/>
<path d="M28.7246 23.1282C28.5372 22.5398 28.4071 22.1802 28.4071 20.3109V16.7247C28.4071 14.6018 27.7181 13.8179 26.1544 13.8179H24.9653V23.1282H21.5283V0.261841H26.7227C30.2899 0.261841 31.8234 1.99198 31.8234 5.5202V7.31663C31.8234 9.66988 31.1027 11.2045 29.5707 11.9568C31.2916 12.7076 31.8536 14.4427 31.8536 16.8241V20.3507C31.8536 21.461 31.8853 22.278 32.2298 23.1282H28.7246ZM24.9701 3.52822V10.5515H26.3163C27.599 10.5515 28.3801 9.96321 28.3801 8.13363V5.87982C28.3801 4.2458 27.8482 3.52822 26.6338 3.52822H24.9701Z" fill="white"/>
<path d="M38.9564 9.89692H43.6824V13.1633H38.9564V19.8618H44.9032V23.1282H35.5146V0.261841H44.9032V3.52822H38.9564V9.89692Z" fill="white"/>
<path d="M57.6497 14.6018V17.6395C57.6497 21.2986 55.9034 23.3884 52.5172 23.3884C49.131 23.3884 47.3848 21.2986 47.3848 17.6395V5.7489C47.3848 2.08975 49.131 0 52.5172 0C55.9034 0 57.6497 2.08975 57.6497 5.7489V7.96957H54.3953V5.5202C54.3953 3.88784 53.7063 3.26638 52.6109 3.26638C51.5155 3.26638 50.8281 3.88784 50.8281 5.5202V17.8681C50.8281 19.5005 51.5155 20.0905 52.6109 20.0905C53.7063 20.0905 54.3953 19.5005 54.3953 17.8681V14.6018H57.6497Z" fill="white"/>
<path d="M59.4316 0.261841H70.068V3.52822H66.4723V23.1282H63.0242V3.52822H59.4316V0.261841Z" fill="white"/>
<path d="M72.4795 0.261841H75.9228V19.8618H81.5855V23.1282H72.4795V0.261841Z" fill="#2D78FF"/>
<path d="M83.5986 0.261841H87.042V23.1315H83.5986V0.261841Z" fill="#2D78FF"/>
<path d="M94.0191 6.56591V23.1282H90.9219V0.261841H95.2384L98.7754 13.9488V0.261841H101.841V23.1315H98.3055L94.0191 6.56591Z" fill="#2D78FF"/>
<path d="M109.063 9.89692H113.787V13.1633H109.063V19.8618H115V23.1282H105.611V0.261841H115V3.52822H109.063V9.89692Z" fill="#2D78FF"/>
<path d="M17.6173 34.442H0.0625V35.2971H17.6173V34.442Z" fill="white"/>
<path d="M115 34.442H97.4453V35.2971H115V34.442Z" fill="white"/>
<path d="M21.3545 32.2998H23.0795C23.5688 32.2998 23.989 32.391 24.3403 32.5736C24.6916 32.7561 24.9592 33.0212 25.1432 33.3689C25.3314 33.7166 25.4255 34.1316 25.4255 34.614C25.4255 35.1008 25.3335 35.518 25.1495 35.8657C24.9655 36.2134 24.6979 36.4807 24.3466 36.6675C23.9953 36.8501 23.5729 36.9413 23.0795 36.9413H21.3545V32.2998ZM23.0168 36.1199C23.9702 36.1199 24.4469 35.618 24.4469 34.614C24.4469 33.6188 23.9702 33.1212 23.0168 33.1212H22.333V36.1199H23.0168Z" fill="white"/>
<path d="M28.7656 32.2998H31.8455V33.0886H29.7191V34.1838H31.7138V34.9791H29.7191V36.1525H31.8455V36.9413H28.7656V32.2998Z" fill="white"/>
<path d="M39.3762 32.2998L37.3689 36.9413H36.5848L34.5775 32.2998H35.5937L36.9863 35.6701L38.3914 32.2998H39.3762Z" fill="white"/>
<path d="M42.3015 32.2998H45.3814V33.0886H43.2549V34.1838H45.2497V34.9791H43.2549V36.1525H45.3814V36.9413H42.3015V32.2998Z" fill="white"/>
<path d="M48.6284 32.2998H49.6069V36.1134H51.6016V36.9413H48.6284V32.2998Z" fill="white"/>
<path d="M56.5715 37C56.1282 37 55.7414 36.9044 55.411 36.7132C55.0849 36.5176 54.8319 36.2394 54.652 35.8787C54.4764 35.518 54.3886 35.0964 54.3886 34.614C54.3886 34.1316 54.4764 33.7122 54.652 33.3558C54.8319 32.9995 55.0849 32.7257 55.411 32.5344C55.7414 32.3389 56.1282 32.2411 56.5715 32.2411C57.0148 32.2411 57.3995 32.3389 57.7257 32.5344C58.0519 32.7257 58.3028 32.9995 58.4784 33.3558C58.654 33.7122 58.7419 34.1316 58.7419 34.614C58.7419 35.0964 58.654 35.518 58.4784 35.8787C58.3028 36.2394 58.0519 36.5176 57.7257 36.7132C57.3995 36.9044 57.0148 37 56.5715 37ZM56.5715 36.2047C56.9479 36.2047 57.2406 36.0678 57.4497 35.794C57.6629 35.5202 57.7696 35.1269 57.7696 34.614C57.7696 34.1012 57.6629 33.7101 57.4497 33.4406C57.2406 33.1711 56.9479 33.0364 56.5715 33.0364C56.1951 33.0364 55.9003 33.1711 55.687 33.4406C55.4779 33.7101 55.3734 34.1012 55.3734 34.614C55.3734 35.1312 55.4779 35.5267 55.687 35.8005C55.9003 36.07 56.1951 36.2047 56.5715 36.2047Z" fill="white"/>
<path d="M62.0785 32.2998H64.1045C64.598 32.2998 64.9806 32.4236 65.2525 32.6713C65.5285 32.9191 65.6665 33.2559 65.6665 33.6818C65.6665 34.1034 65.5285 34.4402 65.2525 34.6923C64.9765 34.94 64.5938 35.0638 64.1045 35.0638H63.057V36.9413H62.0785V32.2998ZM63.9791 34.2881C64.4893 34.2881 64.7444 34.0882 64.7444 33.6883C64.7444 33.2841 64.4893 33.082 63.9791 33.082H63.057V34.2881H63.9791Z" fill="white"/>
<path d="M73.318 32.2998V36.9413H72.4523V34.4054L71.4236 36.9413H70.7901L69.7551 34.438V36.9413H68.8957V32.2998H69.6735L71.1162 35.7223L72.5464 32.2998H73.318Z" fill="white"/>
<path d="M76.7905 32.2998H79.8704V33.0886H77.7439V34.1838H79.7386V34.9791H77.7439V36.1525H79.8704V36.9413H76.7905V32.2998Z" fill="white"/>
<path d="M86.9876 32.2998V36.9413H86.26L84.0332 33.9817V36.9413H83.1173V32.2998H83.8387L86.0655 35.2529V32.2998H86.9876Z" fill="white"/>
<path d="M91.4837 33.1277H90.0849V32.2998H93.8736V33.1277H92.4748V36.9413H91.4837V33.1277Z" fill="white"/>
</svg>
