<svg width="90" height="15" viewBox="0 0 90 15" fill="none" xmlns="http://www.w3.org/2000/svg">
<path d="M7 0.5L8.5716 5.33688H13.6574L9.5429 8.32624L11.1145 13.1631L7 10.1738L2.8855 13.1631L4.4571 8.32624L0.342604 5.33688H5.4284L7 0.5Z" fill="#2C3036"/>
<path d="M26 0.5L27.5716 5.33688H32.6574L28.5429 8.32624L30.1145 13.1631L26 10.1738L21.8855 13.1631L23.4571 8.32624L19.3426 5.33688H24.4284L26 0.5Z" fill="#2C3036"/>
<path d="M45 0.5L46.5716 5.33688H51.6574L47.5429 8.32624L49.1145 13.1631L45 10.1738L40.8855 13.1631L42.4571 8.32624L38.3426 5.33688H43.4284L45 0.5Z" fill="#2C3036"/>
<path d="M64 0.5L65.5716 5.33688H70.6574L66.5429 8.32624L68.1145 13.1631L64 10.1738L59.8855 13.1631L61.4571 8.32624L57.3426 5.33688H62.4284L64 0.5Z" fill="#2C3036"/>
<path d="M83 0.5L84.5716 5.33688H89.6574L85.5429 8.32624L87.1145 13.1631L83 10.1738L78.8855 13.1631L80.4571 8.32624L76.3426 5.33688H81.4284L83 0.5Z" fill="#2C3036"/>
</svg>
