<svg width="30" height="30" viewBox="0 0 30 30" fill="none" xmlns="http://www.w3.org/2000/svg">
<path fill-rule="evenodd" clip-rule="evenodd" d="M4.3934 4.3934C7.20645 1.58036 11.0218 0 15 0C23.2 0 30 6.7 30 15C30.0026 16.9706 29.6164 18.9223 28.8636 20.7433C28.1107 22.5644 27.0059 24.2191 25.6125 25.6125C24.2191 27.0059 22.5644 28.1106 20.7434 28.8635C18.9223 29.6164 16.9706 30.0026 15 30C11.0218 30 7.20645 28.4197 4.3934 25.6066C1.58036 22.7936 0 18.9782 0 15C0 11.0218 1.58036 7.20645 4.3934 4.3934ZM21.378 11.924V12.328C21.378 16.361 18.338 21 12.662 21C10.939 21 9.318 20.496 8 19.588H8.70901C10.128 19.588 11.446 19.084 12.561 18.277C11.243 18.277 10.128 17.37 9.72299 16.16C9.82449 16.16 9.92574 16.185 10.027 16.21C10.1282 16.235 10.2295 16.26 10.331 16.26H10.3395C10.6388 16.26 10.8409 16.26 11.142 16.16C9.723 15.857 8.70901 14.647 8.70901 13.134C9.11502 13.336 9.62199 13.538 10.128 13.538C9.31799 13.034 8.811 12.025 8.811 11.017C8.811 10.412 8.912 9.908 9.216 9.504C10.736 11.319 12.966 12.529 15.5 12.731C15.399 12.529 15.399 12.227 15.399 12.025C15.399 10.311 16.818 9 18.439 9C19.351 9 20.162 9.403 20.669 10.008C21.3739 9.90858 21.9789 9.60854 22.5843 9.30829L22.595 9.30301C22.392 10.008 21.885 10.613 21.277 11.017C21.885 10.916 22.493 10.815 23 10.513C22.7954 10.6756 22.5908 10.8712 22.3795 11.0731C22.0673 11.3714 21.7406 11.6837 21.378 11.924Z" fill="white"/>
</svg>
