<svg width="30" height="30" viewBox="0 0 30 30" fill="none" xmlns="http://www.w3.org/2000/svg">
<path fill-rule="evenodd" clip-rule="evenodd" d="M15 0C11.0218 0 7.20645 1.58036 4.3934 4.3934C1.58036 7.20645 0 11.0218 0 15C0 18.9782 1.58036 22.7936 4.3934 25.6066C7.20645 28.4197 11.0218 30 15 30C16.9706 30.0026 18.9223 29.6164 20.7434 28.8635C22.5644 28.1106 24.2191 27.0059 25.6125 25.6125C27.0059 24.2191 28.1107 22.5644 28.8636 20.7433C29.6164 18.9223 30.0026 16.9706 30 15C30 6.7 23.2 0 15 0ZM25 15.8C25 17.4 24.8 19.1 24.8 19.1C24.8 19.1 24.6 20.5 24 21.1C23.2 21.9 22.4 21.9 22 22C19.2 22.2 15 22.2 15 22.2C15 22.2 9.8 22.2 8.2 22C7.8 21.9 6.8 21.9 6 21.1C5.4 20.5 5.2 19.1 5.2 19.1C5.2 19.1 5 17.5 5 15.8V14.3C5 12.7 5.2 11 5.2 11C5.2 11 5.4 9.6 6 9C6.8 8.2 7.6 8.20001 8 8.10001C10.8 7.90001 15 7.89999 15 7.89999C15 7.89999 19.2 7.90001 22 8.10001C22.4 8.10001 23.2 8.2 24 9C24.6 9.6 24.8 11 24.8 11C24.8 11 25 12.6 25 14.3V15.8ZM13 18L18 15.053L13 12V18Z" fill="#2C3036"/>
</svg>
